<svg width="583.04004" height="431.02025" xmlns="http://www.w3.org/2000/svg">
 <g>
  <title>Layer 1</title>
  <g id="svg_1">
   <path d="m291.52026,308.9511c-64.43262,0 -125.03809,-9.5918 -170.65234,-27.00781c-46.22217,-17.64844 -71.67773,-41.35547 -71.67773,-66.75488s25.45557,-49.10547 71.67773,-66.75391c45.61426,-17.41602 106.21973,-27.00781 170.65234,-27.00781s125.0376,9.5918 170.65234,27.00781c46.22168,17.64844 71.67725,41.35547 71.67725,66.75391s-25.45557,49.10645 -71.67725,66.75488c-45.61475,17.41602 -106.21973,27.00781 -170.65234,27.00781zm0,-183.52441c-63.95703,0 -124.05566,9.49805 -169.22559,26.74463c-44.56299,17.01514 -69.10449,39.39502 -69.10449,63.01709s24.5415,46.00293 69.10449,63.01758c45.16992,17.24707 105.26855,26.74512 169.22559,26.74512s124.05566,-9.49805 169.2251,-26.74512c44.56299,-17.01465 69.10449,-39.39453 69.10449,-63.01758s-24.5415,-46.00195 -69.10449,-63.01709c-45.16992,-17.24658 -105.26855,-26.74463 -169.2251,-26.74463z" fill="#61dafb" id="svg_2"/>
   <path d="m391.64233,430.37786c-20.02393,0 -44.98486,-11.57324 -72.60693,-34.02246c-37.89062,-30.79492 -76.5,-78.48535 -108.71582,-134.28516c-32.21631,-55.7998 -54.2124,-113.08203 -61.93652,-161.29346c-7.82715,-48.854 -0.02393,-82.75244 21.97217,-95.45166c21.99609,-12.69873 55.25537,-2.50732 93.64941,28.69727c37.89062,30.79541 76.5,78.48535 108.71582,134.28516c32.21631,55.7998 54.2124,113.08203 61.93652,161.29395c7.82715,48.85352 0.02393,82.75195 -21.97217,95.45215c-6.17139,3.5625 -13.23291,5.32422 -21.04248,5.32422l0,-0.00001zm-200.13769,-426.40869c-7.13916,0 -13.56201,1.59375 -19.14941,4.81982c-20.45801,11.81152 -27.56885,44.25488 -20.02246,91.35498c7.64893,47.7417 29.47266,104.5376 61.45068,159.92627c31.97852,55.3877 70.25342,102.68555 107.77441,133.18066c37.01709,30.08594 68.67041,40.15137 89.12695,28.33789c20.45801,-11.81152 27.56885,-44.25488 20.02246,-91.35449c-7.64893,-47.74219 -29.47266,-104.53809 -61.45068,-159.92676c-31.97852,-55.3877 -70.25342,-102.68555 -107.7749,-133.18066c-26.90576,-21.86816 -50.97803,-33.15771 -69.97705,-33.15771z" fill="#61dafb" id="svg_3"/>
   <path d="m191.39722,430.37786c-7.81152,0 -14.86914,-1.76074 -21.04199,-5.32422c-21.99609,-12.7002 -29.79932,-46.59863 -21.97217,-95.45215c7.72412,-48.21191 29.72021,-105.49414 61.93652,-161.29395c32.21582,-55.7998 70.8252,-103.48975 108.71582,-134.28516c38.39453,-31.20507 71.6543,-41.39745 93.64941,-28.69726c21.99609,12.69922 29.79932,46.59766 21.97217,95.45166c-7.72412,48.21143 -29.72021,105.49365 -61.93652,161.29346c-32.21582,55.7998 -70.8252,103.49023 -108.71582,134.28516c-27.61963,22.44824 -52.58398,34.02246 -72.60742,34.02246zm200.13818,-426.40869c-18.99951,0 -43.06885,11.28809 -69.97754,33.15771c-37.521,30.49512 -75.7959,77.79297 -107.77441,133.18066c-31.97803,55.38867 -53.80176,112.18457 -61.45068,159.92676c-7.54639,47.09961 -0.43555,79.54297 20.02246,91.35449c5.58643,3.22559 12.01221,4.81934 19.14941,4.82031c18.99951,0.00195 43.06885,-11.28809 69.97705,-33.1582c37.52148,-30.49512 75.79639,-77.79297 107.7749,-133.18066c31.97803,-55.38867 53.80176,-112.18457 61.45068,-159.92627c7.54639,-47.1001 0.43555,-79.54346 -20.02246,-91.35498c-5.58643,-3.2251 -12.01221,-4.81982 -19.14941,-4.81982z" fill="#61dafb" id="svg_4"/>
   <circle cx="291.52004" cy="215.18889" r="44.78878" fill="#61dafb" id="svg_5"/>
  </g>
  <path d="m583.04004,430.18022l0,0c0,0.46394 -0.37609,0.84003 -0.84003,0.84003l-582.20001,0l0,-1.68005l582.20001,0c0.46393,0 0.84003,0.37609 0.84003,0.84003l0,-0.00001z" fill="#e6e6e6" id="svg_33"/>
  <g id="svg_82">
   <path d="m303.73683,232.12257s10.42909,10.63305 11.35498,16.62785l-9.07273,5.15547l-10.47149,-18.10486l-5.5228,-24.16783a4.16018,4.10454 0 1 1 6.93708,-1.75136l6.77495,22.24073l0.00001,0z" fill="#ffb6b6" id="svg_34"/>
   <path d="m400.46628,206.62644a4.16018,4.10454 0 1 1 6.86647,2.00403l-6.42767,23.94908l-11.14502,17.70918l-8.87262,-5.48396c1.15068,-5.95675 11.97233,-16.20084 11.97233,-16.20084l7.60651,-21.9775l0,0.00001z" fill="#ffb6b6" id="svg_35"/>
   <path d="m530.47799,92.5258c-2.65408,-1.17947 -5.26304,-2.31444 -7.75922,-3.36038c-0.37593,-0.15578 -0.75186,-0.31898 -1.12779,-0.47476l-0.04511,-0.02225q-3.3721,-1.42427 -6.75925,-2.78919c-1.57891,-0.63799 -3.1503,-1.26849 -4.72922,-1.88419c-0.61653,-0.25221 -1.23305,-0.48959 -1.8571,-0.72697c-0.99998,-0.39316 -2.00747,-0.7789 -3.00745,-1.16464c-0.82705,-0.31898 -1.66162,-0.63054 -2.48867,-0.94209c-0.95487,-0.36349 -1.90973,-0.71213 -2.85712,-1.0682q-1.69169,-0.62312 -3.37586,-1.2314a0.06762,0.06672 0 0 0 -0.03759,-0.00742c-0.8496,-0.31156 -1.69921,-0.6157 -2.5413,-0.91242c-11.43583,-4.0651 -23.03708,-7.69995 -34.49546,-10.80812q-0.62029,-0.16691 -1.24057,-0.33381q-1.0714,-0.2893 -2.14281,-0.57861q-1.89469,-0.50072 -3.80443,-0.97918c-1.19546,-0.31156 -2.39844,-0.60828 -3.60142,-0.905c-1.06013,-0.25963 -2.12025,-0.51926 -3.1879,-0.77148c-1.04509,-0.25221 -2.09018,-0.49701 -3.14279,-0.73439q-4.70295,-1.0905 -9.39077,-2.06222a0.20775,0.20498 0 0 0 -0.06767,-0.00742c-0.75186,-0.1632 -1.49621,-0.31898 -2.24807,-0.46734c-11.41328,-2.30702 -23.02204,-4.16153 -34.50298,-5.51904c-0.5639,-0.06676 -1.12779,-0.13353 -1.69169,-0.19287l-0.01504,0c-0.09774,-0.01484 -0.203,-0.02225 -0.30075,-0.02967q-1.42102,-0.16691 -2.84204,-0.31156c-1.24809,-0.13353 -2.48867,-0.25963 -3.73676,-0.37832q-4.43223,-0.43396 -8.84942,-0.75664c-0.74434,-0.05934 -1.48117,-0.11127 -2.218,-0.15578c-0.8496,-0.06676 -1.69921,-0.11869 -2.5413,-0.17062q-1.30824,-0.08902 -2.61648,-0.15578c-0.33082,-0.02225 -0.65412,-0.03709 -0.97742,-0.05193c-0.40601,-0.02967 -0.81953,-0.04451 -1.22554,-0.06676q-0.91351,-0.04451 -1.82703,-0.08902c-11.45839,-0.54152 -23.05963,-0.58603 -34.48795,-0.13353c-0.63156,0.02225 -1.26313,0.05193 -1.90221,0.0816l-0.02256,0c-0.45864,0.02225 -0.91727,0.03709 -1.38343,0.05934c-0.16541,0.00742 -0.33834,0.01484 -0.50375,0.02225c-1.13531,0.05934 -2.27063,0.11869 -3.40594,0.18545c-1.2105,0.06676 -2.41348,0.14094 -3.61646,0.22254c-0.75938,0.05193 -1.51124,0.10385 -2.26311,0.15578c-0.49623,0.03709 -0.99246,0.07418 -1.49621,0.11127c-3.14279,0.23738 -6.28557,0.51185 -9.4058,0.82341c-1.04509,0.10385 -2.08266,0.20771 -3.12023,0.31898c-0.57893,0.05934 -1.15035,0.11869 -1.72177,0.18545c-11.45839,1.27591 -23.06715,3.0785 -34.49546,5.34842c-0.75186,0.14836 -1.51124,0.30414 -2.27063,0.45992c-0.01504,0 -0.03007,0.00742 -0.04511,0.00742c-0.11278,0.02225 -0.23308,0.04451 -0.34586,0.07418c-0.78194,0.15578 -1.57139,0.31898 -2.35333,0.48959c-0.86464,0.17803 -1.72177,0.36349 -2.58641,0.54894c-0.72179,0.15578 -1.44358,0.31898 -2.16536,0.48217c-1.69921,0.37832 -3.40594,0.76406 -5.10515,1.17205q-5.18785,1.22403 -10.36819,2.5889c-0.78194,0.20771 -1.57139,0.41541 -2.36085,0.63054a0.02331,0.023 0 0 0 -0.01504,0.00742c-0.40601,0.10385 -0.81953,0.21512 -1.22554,0.32639c-11.42831,3.10075 -23.02956,6.76527 -34.48795,10.90455c-0.84209,0.30414 -1.68417,0.60828 -2.53378,0.92726a0.17705,0.17468 0 0 0 -0.06015,0.01484q-3.41722,1.25736 -6.87203,2.58149c-0.83457,0.32639 -1.67665,0.65279 -2.51874,0.97918c-0.81201,0.31898 -1.63154,0.63795 -2.44355,0.96435c-0.71427,0.28189 -1.42102,0.56377 -2.13529,0.85308c-0.57142,0.22996 -1.13531,0.45992 -1.70673,0.68988q-2.93226,1.20173 -5.85701,2.43312c-1.18042,0.50443 -2.36837,1.00886 -3.54879,1.5207c-0.38345,0.1632 -0.77442,0.32639 -1.15787,0.49701c-2.84204,1.23885 -5.42845,2.38862 -7.9096,3.52358a15.29048,15.08597 0 0 0 -8.87198,13.64924l0,26.17835a15.21552,15.01201 0 0 0 19.4958,14.40588c1.12028,-0.32639 2.24055,-0.65279 3.36835,-0.97918c0.93983,-0.27447 1.88718,-0.54152 2.827,-0.80857c1.03005,-0.2893 2.05259,-0.57861 3.08264,-0.86791c2.35329,-0.64537 4.7217,-1.29074 7.09007,-1.91386q1.65786,-0.43396 3.31571,-0.86791c1.7368,-0.4525 3.47361,-0.89017 5.21041,-1.32783q0.72179,-0.17803 1.44358,-0.35607c7.55622,-1.86935 15.15003,-3.60518 22.6837,-5.17781c0.77442,-0.1632 1.54884,-0.31898 2.31574,-0.47476q4.74797,-0.97918 9.4434,-1.85452l2.25559,-0.42283l0.02256,0c0.73683,-0.14094 1.47365,-0.27447 2.21048,-0.40799q3.09016,-0.55635 6.21791,-1.08304c1.19546,-0.20771 2.39844,-0.40799 3.60142,-0.60086c0.1203,-0.02225 0.2406,-0.04451 0.36089,-0.05931q3.11271,-0.51185 6.24046,-0.9866c1.4135,-0.21512 2.83452,-0.43025 4.25554,-0.63054c1.2105,-0.17803 2.421,-0.34865 3.6315,-0.51926c11.47343,-1.58747 23.05963,-2.85595 34.44283,-3.74612c0.98494,-0.0816 1.96988,-0.15578 2.95482,-0.22996c3.81946,-0.28189 7.669,-0.5341 11.52606,-0.74181c4.76681,-0.25221 9.54866,-0.4525 14.30795,-0.59345c11.42831,-0.34865 23.01452,-0.34865 34.43531,0c4.76681,0.14094 9.54866,0.34123 14.31547,0.59345c3.85706,0.20771 7.70659,0.45996 11.52606,0.74181c0.98494,0.07418 1.96993,0.14836 2.95487,0.22996c11.37564,0.89017 22.96189,2.15124 34.45031,3.74612c0.54886,0.07418 1.0902,0.15578 1.63911,0.22996c0.19548,0.02967 0.38345,0.05193 0.57893,0.0816c0.83457,0.11869 1.66914,0.2448 2.5037,0.36349q4.7029,0.68988 9.39828,1.46136c0.80449,0.12611 1.60899,0.25963 2.40596,0.39316q2.58265,0.43396 5.14274,0.88275c0.99246,0.17803 1.9774,0.35607 2.96234,0.5341c0.62405,0.11127 1.25565,0.22254 1.87966,0.34123c0.75938,0.14094 1.51876,0.28189 2.27063,0.42283c1.24057,0.22996 2.48115,0.46734 3.72924,0.71213c0.78194,0.15578 1.57139,0.30414 2.36085,0.46734c8.41334,1.66906 16.90939,3.54583 25.36785,5.59322q1.31952,0.32269 2.63904,0.64537c0.1203,0.02967 0.23308,0.05934 0.35338,0.08902c0.90975,0.22254 1.81951,0.4525 2.72926,0.68246q1.95108,0.48959 3.90969,1.00144q1.65786,0.42283 3.31571,0.86791c3.41346,0.89759 6.82691,1.83226 10.21781,2.78919q3.10143,0.87904 6.17279,1.78034l0.01504,0a14.85578,14.65708 0 0 0 2.49618,0.50443a14.53695,14.34251 0 0 0 1.80447,0.11127a15.20442,15.00105 0 0 0 15.17259,-15.02158l0,-26.0597a15.27695,15.07262 0 0 0 -9.02988,-13.716l0.00004,0.00001z" fill="#6c63ff" id="svg_38"/>
   <path d="m205.58306,78.69111a2.27408,2.24366 0 0 0 -2.04507,-0.27447a0.17705,0.17468 0 0 0 -0.06015,0.01484q-3.41722,1.25736 -6.87203,2.58149c-0.83457,0.32639 -1.67665,0.65279 -2.51874,0.97918c-0.81201,0.31898 -1.63154,0.63795 -2.44355,0.96435c-0.71427,0.28189 -1.42102,0.56377 -2.13529,0.85308c-0.57142,0.22996 -1.13531,0.45992 -1.70673,0.68988q-2.93226,1.20173 -5.85701,2.43312c-1.18042,0.50443 -2.36837,1.00886 -3.54879,1.5207a2.30339,2.27258 0 0 0 -1.38343,2.08448l0,53.98125a2.29699,2.26627 0 0 0 0.93231,1.83226a2.45244,2.41964 0 0 0 0.60149,0.31898a2.25733,2.22714 0 0 0 1.40598,0.02967l3.36083,-0.97918q1.40974,-0.40058 2.81949,-0.80115c1.0301,-0.2893 2.0601,-0.57861 3.09772,-0.86791c2.35329,-0.64537 4.7217,-1.29074 7.09007,-1.91386q1.65786,-0.44508 3.31571,-0.86791c1.7368,-0.4525 3.47361,-0.89017 5.21041,-1.32783a2.32654,2.29542 0 0 0 1.12028,-0.65279l0.00752,-0.00742a2.30516,2.27433 0 0 0 0.60149,-1.52812l0,-57.19327a2.30155,2.27077 0 0 0 -0.9925,-1.86935l-0.00001,-0.00002z" fill="#3f3d56" id="svg_39"/>
   <path d="m268.9951,60.72456a2.25545,2.22529 0 0 0 -1.86462,-0.46734c-0.01504,0 -0.03007,0.00742 -0.04511,0.00742c-0.11278,0.02225 -0.23308,0.04451 -0.34586,0.07418c-0.78194,0.15578 -1.57139,0.31898 -2.35333,0.48959c-0.86464,0.17803 -1.72177,0.36349 -2.58641,0.54894c-0.72179,0.15578 -1.44358,0.31898 -2.16536,0.48217c-1.69921,0.37832 -3.40594,0.76406 -5.10515,1.17205q-5.19913,1.22403 -10.36819,2.5889c-0.72179,0.18545 -1.4511,0.37832 -2.17288,0.57119a1.81255,1.78831 0 0 0 -0.18797,0.05934a0.02331,0.023 0 0 0 -0.01504,0.00742a2.31474,2.28378 0 0 0 -1.49621,2.12898l0,61.04325a2.28954,2.25892 0 0 0 0.82705,1.74325a2.18015,2.15099 0 0 0 0.59397,0.34865a2.31252,2.28159 0 0 0 0.87216,0.17062a2.47002,2.43698 0 0 0 0.40601,-0.03709l0.02256,0c0.73683,-0.14094 1.47365,-0.27447 2.21048,-0.40799q3.09016,-0.55635 6.21791,-1.08304c1.19546,-0.20771 2.39844,-0.40799 3.60142,-0.60086c0.1203,-0.02225 0.2406,-0.04451 0.36089,-0.05931q3.11271,-0.51185 6.24046,-0.9866c1.4135,-0.21512 2.83452,-0.43025 4.25554,-0.63054c0.66164,-0.10385 1.32328,-0.19287 1.98492,-0.2893a2.25091,2.22081 0 0 0 1.18042,-0.5341a2.30418,2.27336 0 0 0 0.78946,-1.70615l0,-62.86813a2.29298,2.26231 0 0 0 -0.85712,-1.7655z" fill="#3f3d56" id="svg_40"/>
   <path d="m332.41479,52.99494a2.32278,2.29171 0 0 0 -1.57891,-0.63054l-0.11278,0c-0.42856,0.02225 -0.86464,0.03709 -1.2932,0.05934c-0.16541,0.00742 -0.33834,0.01484 -0.50375,0.02225c-1.13531,0.05934 -2.27063,0.11869 -3.40594,0.18545c-1.2105,0.06676 -2.41348,0.14094 -3.61646,0.22254c-0.75938,0.05193 -1.51124,0.10385 -2.26311,0.15578c-0.49623,0.03709 -0.99246,0.07418 -1.49621,0.11127c-3.14279,0.23738 -6.28557,0.51185 -9.4058,0.82341c-1.04509,0.10385 -2.08266,0.20771 -3.12023,0.31898a2.29889,2.26814 0 0 0 -2.05259,2.26251l0,64.6781a2.26626,2.23595 0 0 0 0.73683,1.65423a2.23153,2.20168 0 0 0 0.46615,0.33381a2.31083,2.27992 0 0 0 1.09772,0.27447c0.05263,0 0.11278,-0.00742 0.17293,-0.00742c0.29323,-0.02225 0.59397,-0.04451 0.8872,-0.06676c3.81946,-0.28189 7.669,-0.5341 11.52606,-0.74181c4.1578,-0.22996 8.3156,-0.40799 12.45085,-0.54152a2.22618,2.1964 0 0 0 1.24809,-0.40058a2.29056,2.25992 0 0 0 0.97742,-1.86193l0,-65.20478a2.28491,2.25435 0 0 0 -0.71427,-1.64681l0,0.00001z" fill="#3f3d56" id="svg_41"/>
   <path d="m394.37578,54.5824l-0.01504,0c-0.09774,-0.01484 -0.203,-0.02225 -0.30075,-0.02967q-1.42102,-0.16691 -2.84204,-0.31156c-1.24809,-0.13353 -2.48867,-0.25963 -3.73676,-0.37832q-4.43223,-0.43396 -8.84942,-0.75664c-0.74434,-0.05934 -1.48117,-0.11127 -2.218,-0.15578c-0.8496,-0.06676 -1.69921,-0.11869 -2.5413,-0.17062q-1.30824,-0.08902 -2.61648,-0.15578c-0.33082,-0.02225 -0.65412,-0.03709 -0.97742,-0.05193c-0.34586,-0.02225 -0.6842,-0.04451 -1.02253,-0.05934a1.83105,1.80656 0 0 0 -0.203,-0.00742a2.24763,2.21757 0 0 0 -1.49621,0.62312a2.29223,2.26157 0 0 0 -0.72179,1.65423l0,65.06384a2.27799,2.24752 0 0 0 0.98494,1.86193a2.20229,2.17283 0 0 0 1.24057,0.40058c4.13525,0.13353 8.29305,0.31156 12.45085,0.54152c3.85706,0.20771 7.70659,0.45996 11.52606,0.74181c0.29323,0.02225 0.59397,0.04451 0.88724,0.06676c0.06011,0 0.11278,0.00742 0.17293,0.00742a2.31087,2.27996 0 0 0 1.09772,-0.27447a2.2325,2.20264 0 0 0 0.46615,-0.33381a2.29431,2.26362 0 0 0 0.73683,-1.65423l0,-64.36654a2.31158,2.28066 0 0 0 -2.02256,-2.25509l0.00001,-0.00001z" fill="#3f3d56" id="svg_42"/>
   <path d="m458.15631,66.79995a1.70384,1.68105 0 0 0 -0.18045,-0.05934c-0.65417,-0.17803 -1.30824,-0.34865 -1.9624,-0.51926q-1.89469,-0.50072 -3.80443,-0.97918c-1.19546,-0.31156 -2.39844,-0.60828 -3.60142,-0.905c-1.06013,-0.25963 -2.12025,-0.51926 -3.1879,-0.77148c-1.04509,-0.25221 -2.09018,-0.49701 -3.14279,-0.73439q-4.70295,-1.0905 -9.39077,-2.06222a0.20775,0.20498 0 0 0 -0.06767,-0.00742a2.26236,2.2321 0 0 0 -1.84958,0.46734a2.29311,2.26244 0 0 0 -0.85712,1.7655l0,62.36366a2.28496,2.2544 0 0 0 0.79702,1.70615a2.22733,2.19753 0 0 0 1.17291,0.5341c0.19548,0.02967 0.38345,0.05193 0.57893,0.0816c0.83457,0.11869 1.66914,0.23738 2.5037,0.36349q4.7029,0.68988 9.39828,1.46136c0.80449,0.12611 1.60899,0.25963 2.40596,0.39316q2.58265,0.43396 5.14274,0.88275c0.99246,0.17803 1.9774,0.35607 2.96234,0.5341c0.62405,0.11127 1.25565,0.22254 1.87966,0.34123a2.74722,2.71047 0 0 0 0.42856,0.03709a2.28411,2.25356 0 0 0 0.87216,-0.17062a2.07297,2.04524 0 0 0 0.59397,-0.34865a2.28942,2.2588 0 0 0 0.82705,-1.74325l0,-60.49431a2.30897,2.27809 0 0 0 -1.51877,-2.1364l0.00002,-0.00001z" fill="#3f3d56" id="svg_43"/>
   <path d="m521.59096,88.69066l-0.04511,-0.02225q-3.3721,-1.42427 -6.75925,-2.78919c-1.57891,-0.63799 -3.1503,-1.26849 -4.72922,-1.88419c-0.61653,-0.25221 -1.23305,-0.48959 -1.8571,-0.72697c-0.99998,-0.39316 -2.00747,-0.7789 -3.00745,-1.16464c-0.82705,-0.31898 -1.66162,-0.63054 -2.48867,-0.94209c-0.95487,-0.36349 -1.90973,-0.71213 -2.85712,-1.0682q-1.69169,-0.62312 -3.37586,-1.2314a0.06762,0.06672 0 0 0 -0.03759,-0.00742a2.23711,2.20719 0 0 0 -2.0601,0.28189a2.30035,2.26958 0 0 0 -0.98494,1.86193l0,56.75561a2.28426,2.2537 0 0 0 0.42856,1.313a2.44512,2.41241 0 0 0 0.17293,0.21512l0.00752,0.00742a2.29272,2.26205 0 0 0 1.12028,0.65279c0.42856,0.10385 0.85712,0.21512 1.28569,0.32639q1.95108,0.48959 3.90969,1.00144q1.65786,0.42283 3.31571,0.86791c3.41346,0.89759 6.82691,1.83226 10.21781,2.78919q3.10143,0.87904 6.17279,1.78034l0.01504,0a2.34336,2.31202 0 0 0 0.63908,0.08902a2.27635,2.24591 0 0 0 0.74434,-0.12611a2.22363,2.19389 0 0 0 0.60149,-0.31898a2.31105,2.28013 0 0 0 0.92479,-1.83226l0,-53.75871a2.29488,2.26419 0 0 0 -1.35332,-2.06964l0.00001,0z" fill="#3f3d56" id="svg_44"/>
   <path d="m183.37096,145.76463c9.791,6.50924 20.01404,12.36208 30.31661,18.04039c11.02138,6.0745 22.15794,11.94285 33.18132,18.01383c11.08993,6.10763 22.08162,12.41218 32.6845,19.31768a225.55829,222.54138 0 0 1 29.14679,22.13705c8.6074,7.86063 16.40339,16.64493 22.53196,26.53756q1.09622,1.76943 2.11906,3.58134c0.70766,1.25069 2.65662,0.12982 1.94763,-1.12321a123.60014,121.94695 0 0 0 -21.58061,-27.35128a210.07389,207.26409 0 0 0 -28.68047,-22.82163c-10.5336,-7.11374 -21.51449,-13.56002 -32.62206,-19.75629c-11.07504,-6.17813 -22.29373,-12.10003 -33.42696,-18.17451c-10.48007,-5.71811 -20.90772,-11.56143 -30.94634,-18.01274q-1.77569,-1.14115 -3.53296,-2.3098c-1.20706,-0.80247 -2.3372,1.12462 -1.13844,1.92159l-0.00002,0l-0.00001,0.00002z" fill="#3f3d56" id="svg_45"/>
   <path d="m221.42651,119.64995a169.04844,166.78737 0 0 0 17.19985,29.62591a352.35435,347.64151 0 0 0 22.12349,27.39438c7.83875,8.90961 15.9123,17.61427 23.80779,26.47449c7.80569,8.75944 15.45898,17.67354 22.44812,27.08742a180.2403,177.82954 0 0 1 17.98698,29.26842q0.91264,1.91617 1.76443,3.85954c0.57562,1.31063 2.51944,0.17873 1.94763,-1.12321a169.04937,166.78828 0 0 0 -17.19985,-29.62591a352.35297,347.64015 0 0 0 -22.12349,-27.39437c-7.83874,-8.90962 -15.9123,-17.61428 -23.80779,-26.4745c-7.8057,-8.75943 -15.45899,-17.67354 -22.44812,-27.08742a180.23926,177.82851 0 0 1 -17.98698,-29.26842q-0.91266,-1.91617 -1.76443,-3.85954c-0.57563,-1.31063 -2.51944,-0.17873 -1.94763,1.12321z" fill="#3f3d56" id="svg_46"/>
   <path d="m497.14806,132.92047a283.35293,279.56301 0 0 1 -27.27787,22.62541c-9.92459,7.3701 -20.11849,14.37725 -30.26184,21.44859c-10.12692,7.05989 -20.21848,14.18172 -29.94224,21.77828a232.45473,229.34558 0 0 0 -26.35735,23.57126c-7.61762,8.10365 -14.44513,17.02837 -19.56317,26.88588q-0.92318,1.77807 -1.76964,3.59314c-0.60398,1.29175 1.33959,2.42364 1.94763,1.12321a114.38778,112.85781 0 0 1 18.40565,-27.22248a213.04332,210.19381 0 0 1 25.64954,-23.78157c9.55836,-7.65556 19.54195,-14.77645 29.58112,-21.80073c10.15134,-7.1028 20.38191,-14.09869 30.37968,-21.41236a319.06341,314.79585 0 0 0 27.72555,-22.34376q1.55439,-1.42959 3.07788,-2.89127c1.04283,-0.9999 -0.55291,-2.57273 -1.59494,-1.57361l0,0.00001z" fill="#3f3d56" id="svg_14"/>
   <path d="m473.90061,112.43538a169.04858,166.7875 0 0 1 -17.19985,29.62591a349.42278,344.74916 0 0 1 -22.14909,27.37358c-7.84644,8.90335 -15.92098,17.60752 -23.81085,26.4731c-7.80022,8.76484 -15.43026,17.69563 -22.41946,27.1096a180.24068,177.82991 0 0 0 -17.98698,29.26843q-0.91264,1.91617 -1.76443,3.85954c-0.57126,1.30068 1.3714,2.43525 1.94763,1.12321a169.04894,166.78787 0 0 1 17.19985,-29.62589a349.42428,344.75063 0 0 1 22.14908,-27.37358c7.84644,-8.90335 15.92099,-17.60752 23.81085,-26.4731c7.80022,-8.76484 15.43027,-17.69563 22.41946,-27.1096a180.23926,177.82851 0 0 0 17.98698,-29.26842q0.91266,-1.91617 1.76443,-3.85954c0.57126,-1.30069 -1.3714,-2.43525 -1.94763,-1.12321l0,-0.00002l0.00001,-0.00001z" fill="#3f3d56" id="svg_15"/>
   <polygon points="307.38671875,394.98541259765625 308.8085021972656,399.8509521484375 328.5087890625,396.7568359375 326.41033935546875,389.57464599609375 307.38671875,394.98541259765625 " fill="#ffb6b6" id="svg_16"/>
   <path d="m302.19195,396.27651l4.37141,14.96372l0.19182,-0.05455a6.14391,6.06173 0 0 0 4.20198,-7.50284l-0.00011,-0.00036l1.30338,-3.33094l-3.59172,-4.50213l-0.38159,-1.30625l-6.09517,1.73333l0,0.00002z" fill="#2f2e41" id="svg_17"/>
   <polygon points="391.9727783203125,418.88641357421875 396.98095703125,417.77593994140625 395.0230712890625,398.18927001953125 387.63153076171875,399.82867431640625 391.9727783203125,418.88641357421875 " fill="#ffb6b6" id="svg_18"/>
   <path d="m391.5101,424.43537l15.39992,-3.4145l-0.04376,-0.19213a6.14391,6.06173 0 0 0 -7.34092,-4.58511l-0.00037,0.00008l-3.29252,-1.48196l-4.76889,3.26938l-1.34433,0.29806l1.39086,6.10617l0.00001,0.00001z" fill="#2f2e41" id="svg_19"/>
   <path d="m376.6446,313.98436l22.67723,91.8058l-11.09265,0.96974l-12.29126,-30.72426l-18.97318,-36.16245l1.71481,41.27538l-35.29933,20.36766l-8.29539,-11.21148l28.21946,-14.97467l-12.32704,-54.6246l3.28096,-6.72114l42.38639,0.00001l0,0.00001z" fill="#2f2e41" id="svg_20"/>
   <path d="m331.20957,322.02373c-3.6762,-5.07791 3.12467,-13.43827 3.95856,-15.20713l0,0a4.50104,4.44084 0 0 1 -3.08089,-4.74283l0.35948,-3.0149l0.37471,-2.95721l-2.68444,-2.64854l-0.00752,-0.06602l-1.54485,-13.33668l-2.24618,-8.85808a19.71104,19.4474 0 0 1 5.59461,-18.84682l5.19202,-0.81341l6.30992,-5.99837l10.17552,0l3.48893,3.28881c6.51306,1.127 7.63199,0.75902 13.22659,7.38275l-2.54215,20.59335l-0.63419,2.83302l0.00187,3.8425l1.6123,1.76787a5.57581,5.50124 0 0 1 1.32265,4.75861l-0.21203,1.04595l0,0c1.66284,0.70309 3.24955,13.19797 3.62866,14.94325l0.56628,2.60705c0.48446,0.63072 3.68223,4.83753 3.68223,5.98755c0,0.17266 -0.12918,0.33956 -0.4064,0.52471c-2.17923,1.45591 -21.25622,5.31028 -26.58721,3.2056c-5.67856,-2.24021 -19.54845,3.70897 -19.54845,3.70897l-0.00002,0z" fill="#e6e6e6" id="svg_21"/>
   <path d="m310.81921,260.9205l4.47409,5.39859a20.18039,19.91047 0 0 0 13.66785,7.2135l0,0a8.83454,8.71637 0 0 0 8.34512,-4.10602l0,0a8.81369,8.6958 0 0 0 -2.46042,-11.62178c-5.54261,-3.84377 -8.56617,-9.79903 -12.92355,-7.86809l-0.93745,-2.27152l-12.28567,-9.79407l-10.06928,8.52484l12.1893,14.52457l0.00001,-0.00002z" fill="#e6e6e6" id="svg_22"/>
   <path d="m397.42654,243.05434l-9.74182,-8.88749l-7.59777,4.77352l-1.0222,2.23564c-4.28178,-2.0891 -12.57486,8.31565 -18.25817,11.9539a8.8137,8.69582 0 0 0 -2.89568,11.52374l0,0a8.83455,8.71638 0 0 0 8.18501,4.40861l0,0a20.18038,19.91046 0 0 0 13.92964,-6.70831l4.67399,-5.23111l12.72699,-14.06851l0.00001,0.00001z" fill="#e6e6e6" id="svg_23"/>
   <circle cx="347.83618" cy="231.48654" r="11.14943" fill="#ffb6b6" id="svg_24"/>
   <path d="m339.63505,239.34523c-0.09864,-0.08536 -0.19173,-0.17649 -0.28815,-0.26422c-0.00347,0.009 -0.00398,0.01822 -0.00768,0.02719l0.29583,0.23703z" fill="#2f2e41" id="svg_25"/>
   <path d="m358.44427,227.3046c-0.06015,-0.03709 -0.11278,-0.07418 -0.17293,-0.10385a4.114,4.05897 0 0 0 -2.60896,-0.86791c-0.90224,0.11127 -1.64658,0.74922 -2.51122,1.00144c-1.8571,0.5341 -3.72924,-0.77148 -5.65401,-0.905l-0.04511,0a4.67773,4.61516 0 0 0 -4.96229,4.31731c-0.03759,0.6157 0.04511,1.2314 -0.03007,1.83968a1.90948,1.88394 0 0 1 -0.94735,1.50587c-0.8496,0.37832 -1.99244,-0.18545 -2.71422,0.40058c-0.63908,0.52668 -0.40601,1.55038 -0.02256,2.28476a3.38431,3.33904 0 0 1 0.62405,2.12898a1.63166,1.60984 0 0 1 -0.05263,0.17803a17.00105,16.77366 0 0 1 -5.41341,-12.52911a6.7039,6.61424 0 0 1 0.63156,-2.9969a3.17061,3.1282 0 0 1 2.41348,-1.75808c0.8872,-0.07418 1.80447,0.31898 2.64656,0.03709c1.03757,-0.34123 1.47365,-1.5207 2.01499,-2.47022a7.23233,7.1356 0 0 1 6.61639,-3.53842a14.33996,14.14815 0 0 1 2.81197,0.55635l1.78939,0.48217a9.66274,9.5335 0 0 1 1.9774,0.68988a6.4356,6.34952 0 0 1 2.26311,2.15866a9.73474,9.60454 0 0 1 1.12028,2.31444a17.03576,16.8079 0 0 1 -2.96986,-0.10385c1.12779,0.68988 2.26311,1.37976 3.3909,2.06964a9.53772,9.41015 0 0 1 -0.19544,3.30846l-0.00002,0z" fill="#2f2e41" id="svg_26"/>
   <g opacity="0.2" id="svg_67">
    <path d="m151.99999,134.91566c0.22196,-0.29022 0.45458,-0.5694 0.68082,-0.85523l0.0123,-0.114l-0.69312,0.96923z" id="svg_65"/>
    <path d="m537.97936,137.97415a14.84814,14.64954 0 0 1 -15.40567,8.872a15.10179,14.8998 0 0 1 -2.45107,-0.49701q-13.18391,-3.87223 -26.36031,-7.12134q-17.23269,-4.27276 -34.46539,-7.51445q-14.40189,-2.71501 -28.80386,-4.71047q-17.24397,-2.39228 -34.47291,-3.75354q-14.40193,-1.14609 -28.81138,-1.56521q-17.23269,-0.52297 -34.45787,0q-14.40189,0.42283 -28.81138,1.56521q-17.23265,1.35751 -34.46539,3.75354q-14.40193,2.00288 -28.81138,4.71047q-17.23269,3.23798 -34.46539,7.51445q-13.18391,3.26031 -26.35279,7.12134a15.10179,14.8998 0 0 1 -2.45107,0.49701a14.83861,14.64014 0 0 1 -16.56354,-14.54682l0,-6.85429c16.95451,-15.12543 40.93893,-22.1355 64.06623,-24.52412c27.50314,-2.84112 55.44988,-0.41541 82.80265,-4.44342c22.30025,-3.28624 44.45765,-10.86005 66.84812,-8.22663c19.51084,2.28476 37.29239,12.15079 56.53256,16.0972c24.13479,4.94785 49.61542,0.40058 73.53218,6.2831c9.37573,2.2996 18.56349,6.34244 25.26259,13.20415a32.64876,32.21207 0 0 1 8.10508,14.13883l-0.00001,0z" id="svg_66"/>
   </g>
   <path d="m552.42937,394.55353a22.20321,21.90624 0 0 1 19.3958,9.70332c0.79254,1.19306 2.74645,0.07931 1.94763,-1.12321a24.49328,24.16568 0 0 0 -21.34346,-10.80554c-1.44522,0.0671 -1.4535,2.29292 0,2.22542l0.00002,0l0.00001,0.00001z" fill="#fff" id="svg_72"/>
   <path d="m235.114,420.82492q-2.32326,12.74052 -5.66905,25.27334a329.46948,325.06273 0 0 1 -14.93199,43.2844q-3.85706,9.05746 -8.26297,17.8627c-0.63908,-0.39316 -1.27065,-0.78631 -1.90221,-1.18689a328.44836,324.05527 0 0 0 17.24773,-41.65985a327.88372,323.49818 0 0 0 11.33805,-44.15973c0.25567,-1.40943 2.43609,-0.80857 2.18044,0.58603z" fill="#fff" id="svg_73"/>
   <path d="m275.84375,314.66001a1.21773,1.20144 0 0 1 -0.97437,-0.48081l-2.98744,-3.93005a1.21806,1.20176 0 1 1 1.94893,-1.44207l1.95449,2.57093l5.01985,-7.42896a1.21811,1.20182 0 1 1 2.02702,1.33329l-5.97489,8.84246a1.21862,1.20232 0 0 1 -0.97972,0.53481l-0.03387,0.0004z" fill="#fff" id="svg_48"/>
   <path d="m359.22999,245.24807c-0.53434,-1.55121 -2.59632,-1.84451 -4.2569,-1.83968q-5.55355,0.01617 -11.0942,0.46607l0.37038,-0.42215a5.51682,5.44303 0 0 0 -3.11034,-0.34415c-1.0189,0.2852 -1.85626,1.43925 -1.39589,2.38027c0.34574,0.70671 1.31186,1.15573 1.24242,1.9375c-0.11748,1.32338 -2.71338,0.88349 -3.11722,2.15081a1.26409,1.24718 0 0 0 0.56866,1.32442a3.42618,3.38035 0 0 0 1.47486,0.46127a30.38546,29.97904 0 0 0 16.21516,-2.06279a6.78128,6.69057 0 0 0 2.39285,-1.47419a2.70268,2.66653 0 0 0 0.7102,-2.57738l0.00002,0z" fill="#e6e6e6" id="svg_52"/>
  </g>
 </g>

</svg>